<?xml version="1.0" standalone="no"?>
<!DOCTYPE svg PUBLIC "-//W3C//DTD SVG 20010904//EN"
 "http://www.w3.org/TR/2001/REC-SVG-20010904/DTD/svg10.dtd">
<svg version="1.0" xmlns="http://www.w3.org/2000/svg"
 width="50.000000pt" height="50.000000pt" viewBox="0 0 50.000000 50.000000"
 preserveAspectRatio="xMidYMid meet">

<g transform="translate(0.000000,50.000000) scale(0.100000,-0.100000)"
fill="#000000" stroke="none">
<path d="M45 447 c-3 -7 -4 -100 -3 -207 l3 -195 205 0 205 0 0 205 0 205
-203 3 c-159 2 -204 0 -207 -11z m75 -167 c0 -11 5 -20 10 -20 6 0 10 9 10 20
0 24 15 27 24 4 10 -25 7 -74 -4 -74 -5 0 -11 10 -11 23 l-2 22 -4 -22 c-5
-27 -22 -31 -24 -5 -1 16 -2 16 -6 0 -2 -10 -9 -18 -14 -18 -10 0 -13 73 -2
83 12 13 23 7 23 -13z m146 7 c-17 -12 -17 -14 -2 -20 20 -8 21 -46 1 -54 -21
-8 -33 6 -15 17 12 7 12 12 2 22 -20 20 -15 48 10 48 21 0 21 -1 4 -13z m79
-40 c1 -43 -1 -46 -20 -41 -23 8 -35 22 -35 46 0 32 12 49 34 46 18 -3 21 -10
21 -51z m35 22 c0 -19 7 -37 18 -45 15 -12 14 -13 -10 -14 -26 0 -28 2 -28 45
0 25 5 45 10 45 6 0 10 -14 10 -31z m-170 -6 c0 9 5 17 11 17 6 0 8 -7 5 -16
-3 -9 -6 -22 -6 -29 0 -7 -8 -23 -17 -34 -18 -22 -18 -21 -19 30 0 45 1 49 13
33 12 -16 13 -16 13 -1z"/>
<path d="M317 283 c-11 -10 -8 -53 3 -53 6 0 10 14 10 30 0 31 -2 35 -13 23z"/>
</g>
</svg>
