<?xml version="1.0" standalone="no"?>
<!DOCTYPE svg PUBLIC "-//W3C//DTD SVG 20010904//EN"
 "http://www.w3.org/TR/2001/REC-SVG-20010904/DTD/svg10.dtd">
<svg version="1.0" xmlns="http://www.w3.org/2000/svg"
 width="80.000000pt" height="80.000000pt" viewBox="0 0 80.000000 80.000000"
 preserveAspectRatio="xMidYMid meet">

<g transform="translate(0.000000,80.000000) scale(0.100000,-0.100000)"
fill="#000000" stroke="none">
<path d="M215 733 c-99 -36 -180 -66 -181 -67 -2 -2 55 -489 58 -491 2 -2 72
-42 156 -89 l153 -86 142 80 c78 44 148 84 155 88 8 6 21 85 37 228 14 120 27
231 29 245 5 25 0 27 -179 92 -100 37 -185 67 -187 67 -1 -1 -84 -31 -183 -67z
m277 -230 c48 -109 98 -224 112 -255 l26 -58 -44 0 -44 0 -22 60 -22 60 -98 0
-98 0 -22 -60 -22 -60 -44 0 -44 0 26 58 c14 31 64 146 112 255 48 108 89 197
92 197 3 0 44 -89 92 -197z"/>
<path d="M367 462 c-15 -37 -27 -71 -27 -75 0 -4 27 -7 60 -7 33 0 60 3 60 7
0 16 -54 143 -60 143 -4 0 -19 -30 -33 -68z"/>
</g>
</svg>
